<?xml version="1.0" encoding="UTF-8"?>
<svg id="Layer_2" data-name="Layer 2" xmlns="http://www.w3.org/2000/svg" viewBox="0 0 84.33 62.2">
  <defs>
    <style>
      .cls-1 {
        fill: #aa0000;
      }
    </style>
  </defs>
  <g id="Layer_1-2" data-name="Layer 1">
    <g>
      <path class="cls-1" d="M45.08,9.2c-.32.73,0,1.59.74,1.91.19.08.39.12.58.12.56,0,1.09-.32,1.33-.86,1.5-3.41.77-7.31-1.86-9.95-.57-.57-1.48-.57-2.05,0s-.57,1.48,0,2.05c1.78,1.78,2.28,4.42,1.26,6.73Z"/>
      <path class="cls-1" d="M36.82,19.85c-.58-.46-1.4-.41-1.92.11L1.21,53.65c-.78.78-1.21,1.82-1.21,2.93s.43,2.15,1.21,2.93l1.16,1.16c1.02,1.02,2.35,1.54,3.69,1.54,1.08,0,2.17-.34,3.11-1.03,9.05-6.68,16.97-14.7,23.57-23.91,1.46-2.03,1.28-4.78-.42-6.6l4.34-4.34c1.15-1.15,1.7-2.38,1.62-3.64-.1-1.71-1.33-2.72-1.46-2.83ZM3.26,57.46c-.23-.23-.36-.55-.36-.88s.13-.64.36-.88l25.01-25.01.76.76c.06.09.12.17.2.25.05.05.11.09.16.13-.06.6-.32,1.25-.8,1.86-6.74,8.67-14.51,16.53-23.12,23.36-.58.46-1.24.72-1.84.78l-.37-.37ZM30.34,35.64c-6.38,8.89-14.08,16.7-22.89,23.2-.73.54-1.7.57-2.48.15.48-.18.96-.45,1.4-.8,8.7-6.9,16.56-14.85,23.42-23.67.33-.43.59-.89.77-1.35.39.76.34,1.69-.22,2.47Z"/>
      <path class="cls-1" d="M82.95,49.11l-.76-.89c-11.61-13.56-24.98-25.51-39.76-35.53l-.96-.65c-1.2-.82-2.82-.66-3.85.37-1.26,1.26-1.17,3.33.2,4.48h0c13.68,11.39,25.77,24.56,35.96,39.16l.08.11c2.05,2.93,6.25,3.3,8.78.77,2.12-2.12,2.26-5.53.3-7.81ZM40.23,15.8c-.49,0-.89-.35-.97-.81h1.94c-.08.46-.48.81-.97.81ZM39.26,14.64c.08-.46.48-.81.97-.81s.89.35.97.81h-1.94ZM78,52.3c.34-.34.88-.38,1.26-.11l-1.37,1.37c-.27-.39-.23-.92.11-1.26ZM79.39,53.69c-.34.34-.88.38-1.26.11l1.37-1.37c.27.39.23.92-.11,1.26Z"/>
    </g>
  </g>
</svg>