<?xml version="1.0" encoding="UTF-8"?>
<svg id="Layer_2" data-name="Layer 2" xmlns="http://www.w3.org/2000/svg" viewBox="0 0 54.89 54.89">
  <defs>
    <style>
      .cls-1 {
        fill: #aa0000;
      }
    </style>
  </defs>
  <g id="Layer_1-2" data-name="Layer 1">
    <g>
      <path class="cls-1" d="M27.45,27.57l.06.19c1.23,3.44,4.83,5.57,8.41,5.57,1.13,0,2.26-.21,3.3-.67,4.01-1.73,6.08-6.09,5.06-10.19-.01,1.72-1.02,3.35-2.7,4.07-.59.26-1.19.37-1.77.37-1.7,0-3.26-1.03-4.11-2.62-.87-1.63-2.47-2.76-4.22-2.76-.55,0-1.12.11-1.69.36-1.15.5-1.96,1.43-2.35,2.52-.39-1.09-1.2-2.02-2.35-2.52-.57-.24-1.13-.36-1.69-.36-1.75,0-3.35,1.12-4.22,2.76-.85,1.59-2.41,2.62-4.11,2.62-.58,0-1.17-.12-1.77-.37-1.68-.72-2.69-2.36-2.7-4.07-1.02,4.11,1.05,8.46,5.06,10.19,1.05.45,2.18.67,3.3.67,3.58,0,7.18-2.14,8.41-5.57l.06-.19Z"/>
      <path class="cls-1" d="M27.45,0C12.31,0,0,12.31,0,27.45s12.31,27.44,27.45,27.44,27.45-12.31,27.45-27.44S42.58,0,27.45,0ZM37.45,16.19l5.4-5.4h-3.32c-.4,0-.72-.32-.72-.72s.32-.72.72-.72h5.24c.4,0,.72.32.72.72v5.24c0,.4-.32.72-.72.72s-.72-.32-.72-.72v-3.66l-5.57,5.57c-.14.14-.33.21-.51.21s-.37-.07-.51-.21c-.28-.28-.28-.74,0-1.02ZM6.18,27.45c0,.76-.61,1.37-1.37,1.37s-1.37-.61-1.37-1.37C3.44,14.21,14.21,3.44,27.45,3.44c.76,0,1.37.61,1.37,1.37s-.61,1.37-1.37,1.37C15.72,6.18,6.18,15.72,6.18,27.45ZM17.31,38.39l-6.88,6.88c-.14.14-.33.21-.51.21s-.37-.07-.51-.21c-.28-.28-.28-.74,0-1.02l6.88-6.88c.28-.28.74-.28,1.02,0s.28.74,0,1.02ZM15.1,34.01c-4.62-2-7.1-6.99-5.9-11.87.16-.65.75-1.1,1.41-1.1h.17c.73.1,1.27.71,1.28,1.44,0,1.2.72,2.28,1.82,2.75.39.17.79.26,1.19.26,1.14,0,2.22-.71,2.83-1.85,1.16-2.17,3.27-3.52,5.5-3.52.77,0,1.53.16,2.26.47.67.29,1.27.7,1.78,1.2.5-.5,1.1-.91,1.78-1.2.73-.32,1.49-.47,2.26-.47,2.23,0,4.34,1.35,5.5,3.52.61,1.14,1.7,1.85,2.83,1.85.4,0,.8-.09,1.19-.26,1.1-.47,1.81-1.56,1.82-2.75,0-.73.55-1.34,1.28-1.43h.17c.66-.01,1.24.44,1.41,1.09,1.21,4.88-1.27,9.88-5.9,11.87-1.21.52-2.51.78-3.88.78-3.39,0-6.57-1.61-8.47-4.13-1.9,2.52-5.07,4.13-8.47,4.13-1.37,0-2.67-.26-3.88-.78ZM27.45,51.45c-.76,0-1.37-.61-1.37-1.37s.61-1.37,1.37-1.37c11.73,0,21.27-9.54,21.27-21.27,0-.76.61-1.37,1.37-1.37s1.37.61,1.37,1.37c0,13.24-10.77,24.01-24.01,24.01Z"/>
    </g>
  </g>
</svg>